<?xml version="1.0" standalone="no"?>
<!DOCTYPE svg PUBLIC "-//W3C//DTD SVG 20010904//EN"
 "http://www.w3.org/TR/2001/REC-SVG-20010904/DTD/svg10.dtd">
<svg version="1.0" xmlns="http://www.w3.org/2000/svg"
 width="15.000000pt" height="20.000000pt" viewBox="0 0 15.000000 20.000000"
 preserveAspectRatio="xMidYMid meet">

<g transform="translate(0.000000,20.000000) scale(0.100000,-0.100000)"
fill="#000000" stroke="none">
<path d="M50 190 c0 -6 -11 -15 -25 -20 -25 -10 -26 -12 -23 -87 l3 -78 73 -3
72 -3 0 86 c0 77 -2 85 -19 85 -10 0 -21 7 -25 15 -6 17 -56 21 -56 5z m50
-10 c0 -5 -9 -10 -20 -10 -11 0 -20 5 -20 10 0 6 9 10 20 10 11 0 20 -4 20
-10z m40 -96 l0 -64 -65 0 -65 0 0 63 0 64 65 0 65 1 0 -64z"/>
</g>
</svg>
